<svg width="231" height="46" viewBox="0 0 231 46" fill="none" xmlns="http://www.w3.org/2000/svg">
<path d="M80.7963 14.5586C83.1482 14.5586 85.039 15.2736 86.4686 16.7037C87.9213 18.111 88.6477 20.0858 88.6477 22.628V33.6936H83.8054V23.2749C83.8054 21.7995 83.4249 20.6759 82.664 19.9042C81.9031 19.1097 80.8655 18.7125 79.5511 18.7125C78.2368 18.7125 77.1876 19.1097 76.4037 19.9042C75.6427 20.6759 75.2623 21.7995 75.2623 23.2749V33.6936H70.42V23.2749C70.42 21.7995 70.0395 20.6759 69.2786 19.9042C68.5177 19.1097 67.48 18.7125 66.1657 18.7125C64.8283 18.7125 63.7676 19.1097 62.9837 19.9042C62.2227 20.6759 61.8423 21.7995 61.8423 23.2749V33.6936H57V14.831H61.8423V17.1122C62.4648 16.3178 63.2604 15.6936 64.2288 15.2396C65.2203 14.7856 66.3041 14.5586 67.48 14.5586C68.9788 14.5586 70.3162 14.8764 71.4922 15.512C72.6682 16.1248 73.579 17.0101 74.2246 18.1677C74.8472 17.0782 75.7465 16.2043 76.9225 15.546C78.1215 14.8878 79.4128 14.5586 80.7963 14.5586Z" fill="white"/>
<path d="M95.6984 12.5839C94.8452 12.5839 94.1304 12.3228 93.554 11.8008C93.0006 11.256 92.7239 10.5864 92.7239 9.79193C92.7239 8.99748 93.0006 8.33922 93.554 7.81715C94.1304 7.27238 94.8452 7 95.6984 7C96.5516 7 97.2548 7.27238 97.8082 7.81715C98.3847 8.33922 98.6729 8.99748 98.6729 9.79193C98.6729 10.5864 98.3847 11.256 97.8082 11.8008C97.2548 12.3228 96.5516 12.5839 95.6984 12.5839ZM98.0849 14.831V33.6936H93.2427V14.831H98.0849Z" fill="white"/>
<path d="M113.488 14.5586C115.77 14.5586 117.615 15.2736 119.022 16.7037C120.428 18.111 121.131 20.0858 121.131 22.628V33.6936H116.289V23.2749C116.289 21.7768 115.909 20.6305 115.148 19.8361C114.387 19.0189 113.349 18.6103 112.035 18.6103C110.697 18.6103 109.637 19.0189 108.853 19.8361C108.092 20.6305 107.711 21.7768 107.711 23.2749V33.6936H102.869V14.831H107.711V17.1803C108.357 16.3632 109.176 15.7276 110.167 15.2736C111.182 14.797 112.288 14.5586 113.488 14.5586Z" fill="white"/>
<path d="M133.726 29.3014L138.568 14.831H143.722L136.631 33.6936H130.751L123.695 14.831H128.884L133.726 29.3014Z" fill="white"/>
<path d="M154.95 34C153.105 34 151.445 33.6028 149.969 32.8083C148.494 31.9912 147.329 30.8449 146.476 29.3695C145.646 27.8941 145.231 26.1917 145.231 24.2623C145.231 22.3329 145.657 20.6305 146.511 19.1551C147.387 17.6797 148.574 16.5448 150.073 15.7503C151.572 14.9332 153.244 14.5246 155.088 14.5246C156.933 14.5246 158.605 14.9332 160.104 15.7503C161.602 16.5448 162.778 17.6797 163.631 19.1551C164.508 20.6305 164.946 22.3329 164.946 24.2623C164.946 26.1917 164.496 27.8941 163.597 29.3695C162.721 30.8449 161.522 31.9912 160 32.8083C158.501 33.6028 156.818 34 154.95 34ZM154.95 29.8462C155.826 29.8462 156.645 29.6419 157.406 29.2333C158.19 28.802 158.812 28.1665 159.273 27.3266C159.735 26.4868 159.965 25.4653 159.965 24.2623C159.965 22.4691 159.481 21.0958 158.512 20.1425C157.567 19.1665 156.403 18.6784 155.019 18.6784C153.636 18.6784 152.471 19.1665 151.526 20.1425C150.603 21.0958 150.142 22.4691 150.142 24.2623C150.142 26.0555 150.592 27.4401 151.491 28.4161C152.414 29.3695 153.566 29.8462 154.95 29.8462Z" fill="white"/>
<path d="M170.953 12.5839C170.1 12.5839 169.385 12.3228 168.809 11.8008C168.256 11.256 167.979 10.5864 167.979 9.79193C167.979 8.99748 168.256 8.33922 168.809 7.81715C169.385 7.27238 170.1 7 170.953 7C171.807 7 172.51 7.27238 173.063 7.81715C173.64 8.33922 173.928 8.99748 173.928 9.79193C173.928 10.5864 173.64 11.256 173.063 11.8008C172.51 12.3228 171.807 12.5839 170.953 12.5839ZM173.34 14.831V33.6936H168.498V14.831H173.34Z" fill="white"/>
<path d="M176.879 24.2623C176.879 22.3102 177.283 20.6078 178.09 19.1551C178.897 17.6797 180.015 16.5448 181.445 15.7503C182.874 14.9332 184.511 14.5246 186.356 14.5246C188.731 14.5246 190.691 15.1148 192.236 16.2951C193.804 17.4527 194.853 19.087 195.383 21.198H190.161C189.884 20.3808 189.411 19.7453 188.743 19.2913C188.097 18.8146 187.29 18.5763 186.321 18.5763C184.938 18.5763 183.843 19.0757 183.036 20.0744C182.229 21.0504 181.825 22.4464 181.825 24.2623C181.825 26.0555 182.229 27.4515 183.036 28.4502C183.843 29.4262 184.938 29.9143 186.321 29.9143C188.281 29.9143 189.561 29.0517 190.161 27.3266H195.383C194.853 29.3695 193.804 30.9924 192.236 32.1955C190.668 33.3985 188.708 34 186.356 34C184.511 34 182.874 33.6028 181.445 32.8083C180.015 31.9912 178.897 30.8562 178.09 29.4035C177.283 27.9281 176.879 26.2144 176.879 24.2623Z" fill="white"/>
<path d="M216.743 23.8537C216.743 24.5347 216.697 25.1475 216.605 25.6923H202.597C202.712 27.0542 203.197 28.1211 204.05 28.8928C204.903 29.6646 205.952 30.0504 207.197 30.0504C208.996 30.0504 210.276 29.29 211.036 27.7692H216.259C215.706 29.5851 214.645 31.0832 213.077 32.2636C211.509 33.4212 209.584 34 207.301 34C205.456 34 203.796 33.6028 202.32 32.8083C200.868 31.9912 199.726 30.8449 198.896 29.3695C198.089 27.8941 197.686 26.1917 197.686 24.2623C197.686 22.3102 198.089 20.5965 198.896 19.1211C199.703 17.6456 200.833 16.5107 202.286 15.7163C203.738 14.9218 205.41 14.5246 207.301 14.5246C209.123 14.5246 210.748 14.9105 212.178 15.6822C213.631 16.454 214.749 17.5549 215.533 18.9849C216.34 20.3922 216.743 22.0151 216.743 23.8537ZM211.728 22.4918C211.705 21.2661 211.256 20.29 210.379 19.5637C209.503 18.8146 208.431 18.4401 207.163 18.4401C205.964 18.4401 204.949 18.8033 204.119 19.5296C203.312 20.2333 202.816 21.2207 202.632 22.4918H211.728Z" fill="white"/>
<path d="M225.12 17.7591C225.743 16.7604 226.55 15.9773 227.541 15.4098C228.556 14.8424 229.709 14.5586 231 14.5586V19.5637H229.72C228.198 19.5637 227.045 19.9155 226.262 20.6192C225.501 21.3228 225.12 22.5486 225.12 24.2963V33.6936H220.278V14.831H225.12V17.7591Z" fill="white"/>
<path d="M0 10.073C0 4.50983 4.50983 0 10.073 0H35.927C41.4902 0 46 4.50983 46 10.073V35.927C46 41.4902 41.4902 46 35.927 46H10.073C4.50983 46 0 41.4902 0 35.927V10.073Z" fill="white"/>
<path fill-rule="evenodd" clip-rule="evenodd" d="M29.1988 11H36.7091C37.422 11 38 11.5811 38 12.298V20.0099H35.4181V15.5602L23.6279 28.0994C23.3004 28.4478 22.8085 28.5862 22.3486 28.4595C21.8887 28.3327 21.5358 27.9614 21.4307 27.4938L20.4513 23.1356L10.8448 33L9 31.1838L20.2654 19.6159C20.5962 19.2763 21.0852 19.1456 21.54 19.2753C21.9948 19.405 22.3428 19.7743 22.447 20.2379L23.4153 24.5468L33.7121 13.5959H29.1988V11Z" fill="#2C2C2C"/>
</svg>
