<svg width="41" height="41" viewBox="0 0 41 41" fill="none" xmlns="http://www.w3.org/2000/svg">
<path d="M0 8.9781C0 4.01963 4.01963 0 8.9781 0H32.0219C36.9804 0 41 4.01963 41 8.9781V32.0219C41 36.9804 36.9804 41 32.0219 41H8.9781C4.01963 41 0 36.9804 0 32.0219V8.9781Z" fill="white"/>
<path fill-rule="evenodd" clip-rule="evenodd" d="M25.8058 10H32.7981C33.4619 10 34 10.5283 34 11.18V18.1908H31.5962V14.1457L20.6191 25.5449C20.3141 25.8616 19.8561 25.9875 19.428 25.8723C18.9998 25.757 18.6713 25.4195 18.5734 24.9943L17.6615 21.0324L8.71754 30L7 28.3489L17.4885 17.8327C17.7965 17.5239 18.2517 17.4051 18.6752 17.523C19.0986 17.6409 19.4226 17.9766 19.5196 18.3981L20.4212 22.3153L30.0078 12.3599H25.8058V10Z" fill="#2C2C2C"/>
</svg>
