<svg width="305" height="20" viewBox="0 0 305 20" fill="none" xmlns="http://www.w3.org/2000/svg">
<path d="M304 5.89906C241.336 4.56553 179.21 2.07903 116.431 1.52566C80.3447 1.20758 -27.5718 0.27647 8.1484 2.07233C66.861 5.02416 127.541 4.92931 186.656 6.91433C209.56 7.68344 232.281 8.71436 255.069 9.80391C263.839 10.2232 270.688 10.9317 256.655 10.663C194.024 9.46344 131.718 6.79769 69.0856 5.50859C62.4019 5.37103 42.5996 5.30398 49.0375 5.93811C72.636 8.26254 97.9526 9.17828 122.094 10.4677C151.165 12.0205 180.707 12.9902 209.536 15.0364C219.892 15.7714 233.761 16.0007 243.403 17.4964C260.464 20.1432 206.042 18.5154 187.336 18.3945C156.204 18.1935 125.109 17.5739 94.0043 17.145" stroke="#8D8D8D" stroke-linecap="round"/>
</svg>
