<svg width="16" height="16" viewBox="0 0 16 16" fill="none" xmlns="http://www.w3.org/2000/svg">
<path d="M3.50365 0.25H12.4964C14.2933 0.25 15.75 1.70671 15.75 3.50365V12.4964C15.75 14.2933 14.2933 15.75 12.4964 15.75H3.50365C1.70671 15.75 0.25 14.2933 0.25 12.4964V3.50365C0.25 1.70671 1.70671 0.25 3.50365 0.25Z" fill="white" stroke="#2C2C2C" stroke-width="0.5"/>
<path fill-rule="evenodd" clip-rule="evenodd" d="M10.1539 4H12.867C13.1246 4 13.3334 4.20628 13.3334 4.46075V7.19832H12.4007V5.61879L8.14149 10.0699C8.02315 10.1936 7.84545 10.2427 7.67933 10.1977C7.5132 10.1527 7.38571 10.0209 7.34774 9.85493L6.99392 8.30787L3.52359 11.8095L2.85718 11.1648L6.92679 7.05847C7.04628 6.9379 7.22292 6.89151 7.38723 6.93755C7.55154 6.98359 7.67723 7.11468 7.71488 7.27927L8.06469 8.80882L11.7844 4.9215H10.1539V4Z" fill="#2C2C2C"/>
</svg>
